<mxfile host="65bd71144e">
    <diagram id="hyXTzDfZUhhmsDUPOdG6" name="Page-1">
        <mxGraphModel dx="5796" dy="3220" grid="1" gridSize="10" guides="1" tooltips="1" connect="1" arrows="1" fold="1" page="1" pageScale="1" pageWidth="1500" pageHeight="3000" background="#FFFFFF" math="0" shadow="0">
            <root>
                <mxCell id="0"/>
                <mxCell id="1" parent="0"/>
                <mxCell id="4" value="" style="edgeStyle=none;html=1;strokeWidth=2;strokeColor=#000000;entryX=0.5;entryY=0;entryDx=0;entryDy=0;entryPerimeter=0;" parent="1" source="diSnjzynUhi2UMkX59iC-2" target="2" edge="1">
                    <mxGeometry relative="1" as="geometry">
                        <Array as="points">
                            <mxPoint x="63" y="240"/>
                            <mxPoint x="785" y="240"/>
                        </Array>
                    </mxGeometry>
                </mxCell>
                <mxCell id="diSnjzynUhi2UMkX59iC-2" value="&lt;font style=&quot;font-size: 18px&quot;&gt;&lt;div&gt;opcion&lt;/div&gt;&lt;div&gt;ciudad&lt;/div&gt;&lt;div&gt;pais&lt;/div&gt;&lt;/font&gt;" style="shape=parallelogram;html=1;strokeWidth=3;perimeter=parallelogramPerimeter;whiteSpace=wrap;rounded=1;arcSize=12;size=0.23;fillColor=#0000FF;fontColor=#000000;strokeColor=#000000;" parent="1" vertex="1">
                    <mxGeometry x="-36.25" y="110" width="197.5" height="80" as="geometry"/>
                </mxCell>
                <mxCell id="diSnjzynUhi2UMkX59iC-12" value="" style="edgeStyle=orthogonalEdgeStyle;rounded=0;orthogonalLoop=1;jettySize=auto;html=1;fontSize=18;strokeColor=#000000;strokeWidth=2;" parent="1" source="diSnjzynUhi2UMkX59iC-5" target="diSnjzynUhi2UMkX59iC-2" edge="1">
                    <mxGeometry relative="1" as="geometry"/>
                </mxCell>
                <mxCell id="diSnjzynUhi2UMkX59iC-5" value="INICIO" style="strokeWidth=3;html=1;shape=mxgraph.flowchart.terminator;whiteSpace=wrap;fontSize=18;fillColor=#FF0000;fontStyle=1;fontColor=#000000;strokeColor=#000000;" parent="1" vertex="1">
                    <mxGeometry x="12.5" y="6" width="100" height="60" as="geometry"/>
                </mxCell>
                <mxCell id="diSnjzynUhi2UMkX59iC-6" value="FIN" style="strokeWidth=3;html=1;shape=mxgraph.flowchart.terminator;whiteSpace=wrap;fontSize=18;fillColor=#FF0000;fontColor=#000000;strokeColor=#000000;fontStyle=1" parent="1" vertex="1">
                    <mxGeometry x="-890" y="2290" width="100" height="60" as="geometry"/>
                </mxCell>
                <mxCell id="135" style="edgeStyle=none;html=1;strokeWidth=2;strokeColor=#000000;entryX=0;entryY=0.5;entryDx=0;entryDy=0;exitX=0.501;exitY=0.867;exitDx=0;exitDy=0;exitPerimeter=0;" edge="1" parent="1" source="diSnjzynUhi2UMkX59iC-7" target="diSnjzynUhi2UMkX59iC-2">
                    <mxGeometry relative="1" as="geometry">
                        <mxPoint x="-110" y="200" as="targetPoint"/>
                        <mxPoint x="100" y="2650" as="sourcePoint"/>
                        <Array as="points">
                            <mxPoint x="63" y="2680"/>
                            <mxPoint x="-1400" y="2680"/>
                            <mxPoint x="-1400" y="150"/>
                        </Array>
                    </mxGeometry>
                </mxCell>
                <mxCell id="diSnjzynUhi2UMkX59iC-7" value="resultados" style="strokeWidth=3;html=1;shape=mxgraph.flowchart.document2;whiteSpace=wrap;size=0.25;fontSize=18;fillColor=#FF8000;fontColor=#000000;strokeColor=#000000;" parent="1" vertex="1">
                    <mxGeometry y="2570" width="125" height="60" as="geometry"/>
                </mxCell>
                <mxCell id="5" style="edgeStyle=none;html=1;exitX=0.5;exitY=1;exitDx=0;exitDy=0;strokeWidth=2;strokeColor=#000000;startArrow=none;entryX=0.5;entryY=0;entryDx=0;entryDy=0;" parent="1" source="70" target="70" edge="1">
                    <mxGeometry relative="1" as="geometry">
                        <mxPoint x="1060" y="560" as="targetPoint"/>
                        <Array as="points"/>
                    </mxGeometry>
                </mxCell>
                <mxCell id="6" style="edgeStyle=none;html=1;exitX=0;exitY=0.5;exitDx=0;exitDy=0;exitPerimeter=0;strokeWidth=2;strokeColor=#000000;entryX=0.5;entryY=0;entryDx=0;entryDy=0;entryPerimeter=0;" parent="1" source="2" target="51" edge="1">
                    <mxGeometry relative="1" as="geometry">
                        <mxPoint x="532.5" y="440" as="targetPoint"/>
                        <Array as="points">
                            <mxPoint x="525" y="335"/>
                        </Array>
                    </mxGeometry>
                </mxCell>
                <mxCell id="2" value="&lt;font face=&quot;helvetica&quot;&gt;&lt;span style=&quot;font-size: 18px&quot;&gt;opcion == 1&lt;/span&gt;&lt;/font&gt;" style="strokeWidth=3;html=1;shape=mxgraph.flowchart.decision;whiteSpace=wrap;fillColor=#FFFF00;fontColor=#000000;strokeColor=#000000;" parent="1" vertex="1">
                    <mxGeometry x="650" y="270" width="270" height="130" as="geometry"/>
                </mxCell>
                <mxCell id="128" style="edgeStyle=none;html=1;exitX=0.5;exitY=1;exitDx=0;exitDy=0;entryX=0.5;entryY=0;entryDx=0;entryDy=0;entryPerimeter=0;strokeColor=#000000;strokeWidth=2;" parent="1" source="8" target="diSnjzynUhi2UMkX59iC-7" edge="1">
                    <mxGeometry relative="1" as="geometry">
                        <Array as="points">
                            <mxPoint x="750" y="2510"/>
                            <mxPoint x="63" y="2510"/>
                        </Array>
                    </mxGeometry>
                </mxCell>
                <mxCell id="8" value="&lt;span&gt;&lt;span style=&quot;font-size: 18px&quot;&gt;resultados = zona_horaria&lt;/span&gt;&lt;br&gt;&lt;/span&gt;" style="rounded=1;whiteSpace=wrap;html=1;absoluteArcSize=1;arcSize=14;strokeWidth=3;fillColor=#00FF00;fontColor=#000000;strokeColor=#000000;" parent="1" vertex="1">
                    <mxGeometry x="660" y="1500" width="180" height="100" as="geometry"/>
                </mxCell>
                <mxCell id="11" value="&lt;b&gt;&lt;font style=&quot;font-size: 16px&quot;&gt;Falso&lt;/font&gt;&lt;/b&gt;" style="text;html=1;align=center;verticalAlign=middle;resizable=0;points=[];autosize=1;strokeColor=none;fillColor=none;fontColor=#000000;" parent="1" vertex="1">
                    <mxGeometry x="650" y="280" width="60" height="20" as="geometry"/>
                </mxCell>
                <mxCell id="12" value="&lt;b&gt;&lt;font style=&quot;font-size: 16px&quot;&gt;Verdadero&lt;/font&gt;&lt;/b&gt;" style="text;html=1;align=center;verticalAlign=middle;resizable=0;points=[];autosize=1;strokeColor=none;fillColor=none;fontSize=16;fontColor=#000000;" parent="1" vertex="1">
                    <mxGeometry x="860" y="280" width="90" height="20" as="geometry"/>
                </mxCell>
                <mxCell id="53" style="edgeStyle=none;html=1;exitX=1;exitY=0.5;exitDx=0;exitDy=0;exitPerimeter=0;strokeWidth=2;strokeColor=#000000;entryX=0.5;entryY=0;entryDx=0;entryDy=0;" parent="1" source="51" target="8" edge="1">
                    <mxGeometry relative="1" as="geometry">
                        <mxPoint x="880" y="490" as="targetPoint"/>
                        <Array as="points">
                            <mxPoint x="750" y="490"/>
                        </Array>
                    </mxGeometry>
                </mxCell>
                <mxCell id="58" value="" style="edgeStyle=none;html=1;strokeColor=#000000;strokeWidth=2;entryX=0.5;entryY=0;entryDx=0;entryDy=0;entryPerimeter=0;exitX=0;exitY=0.5;exitDx=0;exitDy=0;exitPerimeter=0;" parent="1" source="51" target="55" edge="1">
                    <mxGeometry relative="1" as="geometry">
                        <Array as="points">
                            <mxPoint x="355" y="490"/>
                        </Array>
                    </mxGeometry>
                </mxCell>
                <mxCell id="51" value="&lt;font face=&quot;helvetica&quot;&gt;&lt;span style=&quot;font-size: 18px&quot;&gt;opcion == 2&lt;/span&gt;&lt;/font&gt;" style="strokeWidth=3;html=1;shape=mxgraph.flowchart.decision;whiteSpace=wrap;fillColor=#FFFF00;fontColor=#000000;strokeColor=#000000;" parent="1" vertex="1">
                    <mxGeometry x="400" y="425" width="250" height="130" as="geometry"/>
                </mxCell>
                <mxCell id="61" style="edgeStyle=none;html=1;exitX=1;exitY=0.5;exitDx=0;exitDy=0;exitPerimeter=0;strokeColor=#000000;strokeWidth=2;entryX=0.5;entryY=0;entryDx=0;entryDy=0;" parent="1" source="55" target="63" edge="1">
                    <mxGeometry relative="1" as="geometry">
                        <mxPoint x="890" y="645" as="targetPoint"/>
                        <Array as="points">
                            <mxPoint x="645" y="645"/>
                        </Array>
                    </mxGeometry>
                </mxCell>
                <mxCell id="87" style="edgeStyle=none;html=1;exitX=0;exitY=0.5;exitDx=0;exitDy=0;exitPerimeter=0;entryX=0.5;entryY=0;entryDx=0;entryDy=0;entryPerimeter=0;strokeWidth=2;strokeColor=#000000;" parent="1" source="55" target="79" edge="1">
                    <mxGeometry relative="1" as="geometry">
                        <Array as="points">
                            <mxPoint x="185" y="645"/>
                        </Array>
                    </mxGeometry>
                </mxCell>
                <mxCell id="55" value="&lt;font face=&quot;helvetica&quot;&gt;&lt;span style=&quot;font-size: 18px&quot;&gt;opcion == 3&lt;/span&gt;&lt;/font&gt;" style="strokeWidth=3;html=1;shape=mxgraph.flowchart.decision;whiteSpace=wrap;fillColor=#FFFF00;fontColor=#000000;strokeColor=#000000;" parent="1" vertex="1">
                    <mxGeometry x="230" y="580" width="250" height="130" as="geometry"/>
                </mxCell>
                <mxCell id="127" style="edgeStyle=none;html=1;exitX=0.5;exitY=1;exitDx=0;exitDy=0;entryX=0.5;entryY=0;entryDx=0;entryDy=0;entryPerimeter=0;strokeColor=#000000;strokeWidth=2;" parent="1" source="63" target="diSnjzynUhi2UMkX59iC-7" edge="1">
                    <mxGeometry relative="1" as="geometry">
                        <Array as="points">
                            <mxPoint x="645" y="2510"/>
                            <mxPoint x="63" y="2510"/>
                        </Array>
                    </mxGeometry>
                </mxCell>
                <mxCell id="63" value="&lt;span&gt;&lt;span style=&quot;font-size: 18px&quot;&gt;resultados = velocidad_viento&lt;/span&gt;&lt;br&gt;&lt;/span&gt;" style="rounded=1;whiteSpace=wrap;html=1;absoluteArcSize=1;arcSize=14;strokeWidth=3;fillColor=#00FF00;fontColor=#000000;strokeColor=#000000;" parent="1" vertex="1">
                    <mxGeometry x="555" y="1350" width="180" height="100" as="geometry"/>
                </mxCell>
                <mxCell id="117" style="edgeStyle=none;html=1;exitX=0.5;exitY=1;exitDx=0;exitDy=0;strokeColor=#000000;strokeWidth=2;entryX=0.5;entryY=0;entryDx=0;entryDy=0;entryPerimeter=0;" parent="1" source="70" target="diSnjzynUhi2UMkX59iC-7" edge="1">
                    <mxGeometry relative="1" as="geometry">
                        <mxPoint x="1072.230769230769" y="2120" as="targetPoint"/>
                        <Array as="points">
                            <mxPoint x="1080" y="2510"/>
                            <mxPoint x="63" y="2510"/>
                        </Array>
                    </mxGeometry>
                </mxCell>
                <mxCell id="70" value="&lt;span&gt;&lt;span style=&quot;font-size: 18px&quot;&gt;resultados = (lat + lon)&lt;/span&gt;&lt;br&gt;&lt;/span&gt;" style="rounded=1;whiteSpace=wrap;html=1;absoluteArcSize=1;arcSize=14;strokeWidth=3;fillColor=#00FF00;fontColor=#000000;strokeColor=#000000;" parent="1" vertex="1">
                    <mxGeometry x="990" y="1450" width="180" height="100" as="geometry"/>
                </mxCell>
                <mxCell id="88" value="" style="edgeStyle=none;html=1;strokeColor=#000000;strokeWidth=2;entryX=0.5;entryY=0;entryDx=0;entryDy=0;entryPerimeter=0;exitX=0;exitY=0.5;exitDx=0;exitDy=0;exitPerimeter=0;" parent="1" source="79" target="80" edge="1">
                    <mxGeometry relative="1" as="geometry">
                        <Array as="points">
                            <mxPoint x="45" y="795"/>
                        </Array>
                    </mxGeometry>
                </mxCell>
                <mxCell id="97" style="edgeStyle=none;html=1;exitX=1;exitY=0.5;exitDx=0;exitDy=0;exitPerimeter=0;entryX=0.5;entryY=0;entryDx=0;entryDy=0;strokeColor=#000000;strokeWidth=2;" parent="1" source="79" target="96" edge="1">
                    <mxGeometry relative="1" as="geometry">
                        <Array as="points">
                            <mxPoint x="506" y="795"/>
                        </Array>
                    </mxGeometry>
                </mxCell>
                <mxCell id="79" value="&lt;font face=&quot;helvetica&quot;&gt;&lt;span style=&quot;font-size: 18px&quot;&gt;opcion == 4&lt;/span&gt;&lt;/font&gt;" style="strokeWidth=3;html=1;shape=mxgraph.flowchart.decision;whiteSpace=wrap;fillColor=#FFFF00;fontColor=#000000;strokeColor=#000000;" parent="1" vertex="1">
                    <mxGeometry x="60" y="730" width="250" height="130" as="geometry"/>
                </mxCell>
                <mxCell id="89" value="" style="edgeStyle=none;html=1;strokeColor=#000000;strokeWidth=2;exitX=0;exitY=0.5;exitDx=0;exitDy=0;exitPerimeter=0;entryX=0.5;entryY=0;entryDx=0;entryDy=0;entryPerimeter=0;" parent="1" source="80" target="81" edge="1">
                    <mxGeometry relative="1" as="geometry">
                        <Array as="points">
                            <mxPoint x="-105" y="945"/>
                        </Array>
                    </mxGeometry>
                </mxCell>
                <mxCell id="105" style="edgeStyle=none;html=1;exitX=1;exitY=0.5;exitDx=0;exitDy=0;exitPerimeter=0;entryX=0.5;entryY=0;entryDx=0;entryDy=0;strokeColor=#000000;strokeWidth=2;" parent="1" source="80" target="98" edge="1">
                    <mxGeometry relative="1" as="geometry">
                        <Array as="points">
                            <mxPoint x="330" y="945"/>
                        </Array>
                    </mxGeometry>
                </mxCell>
                <mxCell id="80" value="&lt;font face=&quot;helvetica&quot;&gt;&lt;span style=&quot;font-size: 18px&quot;&gt;opcion == 5&lt;/span&gt;&lt;/font&gt;" style="strokeWidth=3;html=1;shape=mxgraph.flowchart.decision;whiteSpace=wrap;fillColor=#FFFF00;fontColor=#000000;strokeColor=#000000;" parent="1" vertex="1">
                    <mxGeometry x="-80" y="880" width="250" height="130" as="geometry"/>
                </mxCell>
                <mxCell id="90" value="" style="edgeStyle=none;html=1;strokeColor=#000000;strokeWidth=2;exitX=0;exitY=0.5;exitDx=0;exitDy=0;exitPerimeter=0;entryX=0.5;entryY=0;entryDx=0;entryDy=0;entryPerimeter=0;" parent="1" source="81" target="82" edge="1">
                    <mxGeometry relative="1" as="geometry">
                        <Array as="points">
                            <mxPoint x="-255" y="1115"/>
                        </Array>
                    </mxGeometry>
                </mxCell>
                <mxCell id="106" style="edgeStyle=none;html=1;entryX=0.523;entryY=0.008;entryDx=0;entryDy=0;entryPerimeter=0;strokeColor=#000000;strokeWidth=2;exitX=1;exitY=0.5;exitDx=0;exitDy=0;exitPerimeter=0;" parent="1" source="81" target="99" edge="1">
                    <mxGeometry relative="1" as="geometry">
                        <Array as="points">
                            <mxPoint x="144" y="1115"/>
                        </Array>
                    </mxGeometry>
                </mxCell>
                <mxCell id="81" value="&lt;font face=&quot;helvetica&quot;&gt;&lt;span style=&quot;font-size: 18px&quot;&gt;opcion == 6&lt;/span&gt;&lt;/font&gt;" style="strokeWidth=3;html=1;shape=mxgraph.flowchart.decision;whiteSpace=wrap;fillColor=#FFFF00;fontColor=#000000;strokeColor=#000000;" parent="1" vertex="1">
                    <mxGeometry x="-230" y="1050" width="250" height="130" as="geometry"/>
                </mxCell>
                <mxCell id="91" value="" style="edgeStyle=none;html=1;strokeColor=#000000;strokeWidth=2;exitX=0;exitY=0.5;exitDx=0;exitDy=0;exitPerimeter=0;entryX=0.5;entryY=0;entryDx=0;entryDy=0;entryPerimeter=0;" parent="1" source="82" target="83" edge="1">
                    <mxGeometry relative="1" as="geometry">
                        <Array as="points">
                            <mxPoint x="-435" y="1275"/>
                        </Array>
                    </mxGeometry>
                </mxCell>
                <mxCell id="108" style="edgeStyle=none;html=1;exitX=1;exitY=0.5;exitDx=0;exitDy=0;exitPerimeter=0;entryX=0.5;entryY=0;entryDx=0;entryDy=0;strokeColor=#000000;strokeWidth=2;" parent="1" source="82" target="100" edge="1">
                    <mxGeometry relative="1" as="geometry">
                        <Array as="points">
                            <mxPoint x="-70" y="1275"/>
                        </Array>
                    </mxGeometry>
                </mxCell>
                <mxCell id="82" value="&lt;font face=&quot;helvetica&quot;&gt;&lt;span style=&quot;font-size: 18px&quot;&gt;opcion == 7&lt;/span&gt;&lt;/font&gt;" style="strokeWidth=3;html=1;shape=mxgraph.flowchart.decision;whiteSpace=wrap;fillColor=#FFFF00;fontColor=#000000;strokeColor=#000000;" parent="1" vertex="1">
                    <mxGeometry x="-380" y="1210" width="250" height="130" as="geometry"/>
                </mxCell>
                <mxCell id="92" value="" style="edgeStyle=none;html=1;strokeColor=#000000;strokeWidth=2;exitX=0;exitY=0.5;exitDx=0;exitDy=0;exitPerimeter=0;entryX=0.5;entryY=0;entryDx=0;entryDy=0;entryPerimeter=0;" parent="1" source="83" target="84" edge="1">
                    <mxGeometry relative="1" as="geometry">
                        <Array as="points">
                            <mxPoint x="-585" y="1435"/>
                        </Array>
                    </mxGeometry>
                </mxCell>
                <mxCell id="109" style="edgeStyle=none;html=1;exitX=1;exitY=0.5;exitDx=0;exitDy=0;exitPerimeter=0;entryX=0.5;entryY=0;entryDx=0;entryDy=0;strokeColor=#000000;strokeWidth=2;" parent="1" source="83" target="101" edge="1">
                    <mxGeometry relative="1" as="geometry">
                        <Array as="points">
                            <mxPoint x="-210" y="1435"/>
                        </Array>
                    </mxGeometry>
                </mxCell>
                <mxCell id="83" value="&lt;font face=&quot;helvetica&quot;&gt;&lt;span style=&quot;font-size: 18px&quot;&gt;opcion == 8&lt;/span&gt;&lt;/font&gt;" style="strokeWidth=3;html=1;shape=mxgraph.flowchart.decision;whiteSpace=wrap;fillColor=#FFFF00;fontColor=#000000;strokeColor=#000000;" parent="1" vertex="1">
                    <mxGeometry x="-560" y="1370" width="250" height="130" as="geometry"/>
                </mxCell>
                <mxCell id="93" value="" style="edgeStyle=none;html=1;strokeColor=#000000;strokeWidth=2;exitX=0;exitY=0.5;exitDx=0;exitDy=0;exitPerimeter=0;entryX=0.5;entryY=0;entryDx=0;entryDy=0;entryPerimeter=0;" parent="1" source="84" target="85" edge="1">
                    <mxGeometry relative="1" as="geometry">
                        <Array as="points">
                            <mxPoint x="-745" y="1595"/>
                        </Array>
                    </mxGeometry>
                </mxCell>
                <mxCell id="110" style="edgeStyle=none;html=1;exitX=1;exitY=0.5;exitDx=0;exitDy=0;exitPerimeter=0;entryX=0.5;entryY=0;entryDx=0;entryDy=0;strokeColor=#000000;strokeWidth=2;" parent="1" source="84" target="102" edge="1">
                    <mxGeometry relative="1" as="geometry">
                        <Array as="points">
                            <mxPoint x="-330" y="1595"/>
                        </Array>
                    </mxGeometry>
                </mxCell>
                <mxCell id="84" value="&lt;font face=&quot;helvetica&quot;&gt;&lt;span style=&quot;font-size: 18px&quot;&gt;opcion == 9&lt;/span&gt;&lt;/font&gt;" style="strokeWidth=3;html=1;shape=mxgraph.flowchart.decision;whiteSpace=wrap;fillColor=#FFFF00;fontColor=#000000;strokeColor=#000000;" parent="1" vertex="1">
                    <mxGeometry x="-710" y="1530" width="250" height="130" as="geometry"/>
                </mxCell>
                <mxCell id="94" value="" style="edgeStyle=none;html=1;strokeColor=#000000;strokeWidth=2;exitX=0;exitY=0.5;exitDx=0;exitDy=0;exitPerimeter=0;entryX=0.5;entryY=0;entryDx=0;entryDy=0;entryPerimeter=0;" parent="1" source="85" target="86" edge="1">
                    <mxGeometry relative="1" as="geometry">
                        <Array as="points">
                            <mxPoint x="-905" y="1745"/>
                        </Array>
                    </mxGeometry>
                </mxCell>
                <mxCell id="111" style="edgeStyle=none;html=1;exitX=1;exitY=0.5;exitDx=0;exitDy=0;exitPerimeter=0;entryX=0.5;entryY=0;entryDx=0;entryDy=0;strokeColor=#000000;strokeWidth=2;" parent="1" source="85" target="103" edge="1">
                    <mxGeometry relative="1" as="geometry">
                        <Array as="points">
                            <mxPoint x="-480" y="1745"/>
                        </Array>
                    </mxGeometry>
                </mxCell>
                <mxCell id="85" value="&lt;font face=&quot;helvetica&quot;&gt;&lt;span style=&quot;font-size: 18px&quot;&gt;opcion == 10&lt;/span&gt;&lt;/font&gt;" style="strokeWidth=3;html=1;shape=mxgraph.flowchart.decision;whiteSpace=wrap;fillColor=#FFFF00;fontColor=#000000;strokeColor=#000000;" parent="1" vertex="1">
                    <mxGeometry x="-870" y="1680" width="250" height="130" as="geometry"/>
                </mxCell>
                <mxCell id="112" style="edgeStyle=none;html=1;exitX=1;exitY=0.5;exitDx=0;exitDy=0;exitPerimeter=0;entryX=0.5;entryY=0;entryDx=0;entryDy=0;strokeColor=#000000;strokeWidth=2;" parent="1" source="86" target="104" edge="1">
                    <mxGeometry relative="1" as="geometry">
                        <Array as="points">
                            <mxPoint x="-650" y="1935"/>
                        </Array>
                    </mxGeometry>
                </mxCell>
                <mxCell id="114" style="edgeStyle=none;html=1;exitX=0;exitY=0.5;exitDx=0;exitDy=0;exitPerimeter=0;strokeWidth=2;strokeColor=#000000;entryX=0.5;entryY=0;entryDx=0;entryDy=0;entryPerimeter=0;" parent="1" source="86" target="136" edge="1">
                    <mxGeometry relative="1" as="geometry">
                        <mxPoint x="-1050" y="2080" as="targetPoint"/>
                        <Array as="points">
                            <mxPoint x="-1065" y="1935"/>
                        </Array>
                    </mxGeometry>
                </mxCell>
                <mxCell id="86" value="&lt;font face=&quot;helvetica&quot;&gt;&lt;span style=&quot;font-size: 18px&quot;&gt;opcion == 11&lt;/span&gt;&lt;/font&gt;" style="strokeWidth=3;html=1;shape=mxgraph.flowchart.decision;whiteSpace=wrap;fillColor=#FFFF00;fontColor=#000000;strokeColor=#000000;" parent="1" vertex="1">
                    <mxGeometry x="-1030" y="1870" width="250" height="130" as="geometry"/>
                </mxCell>
                <mxCell id="126" style="edgeStyle=none;html=1;exitX=0.5;exitY=1;exitDx=0;exitDy=0;entryX=0.5;entryY=0;entryDx=0;entryDy=0;entryPerimeter=0;strokeColor=#000000;strokeWidth=2;" parent="1" source="96" target="diSnjzynUhi2UMkX59iC-7" edge="1">
                    <mxGeometry relative="1" as="geometry">
                        <Array as="points">
                            <mxPoint x="506" y="2510"/>
                            <mxPoint x="63" y="2510"/>
                        </Array>
                    </mxGeometry>
                </mxCell>
                <mxCell id="96" value="&lt;span&gt;&lt;span style=&quot;font-size: 18px&quot;&gt;resultados = humedad&lt;/span&gt;&lt;br&gt;&lt;/span&gt;" style="rounded=1;whiteSpace=wrap;html=1;absoluteArcSize=1;arcSize=14;strokeWidth=3;fillColor=#00FF00;fontColor=#000000;strokeColor=#000000;" parent="1" vertex="1">
                    <mxGeometry x="416.25" y="1630" width="180" height="100" as="geometry"/>
                </mxCell>
                <mxCell id="125" style="edgeStyle=none;html=1;exitX=0.5;exitY=1;exitDx=0;exitDy=0;entryX=0.5;entryY=0;entryDx=0;entryDy=0;entryPerimeter=0;strokeColor=#000000;strokeWidth=2;" parent="1" source="98" target="diSnjzynUhi2UMkX59iC-7" edge="1">
                    <mxGeometry relative="1" as="geometry">
                        <Array as="points">
                            <mxPoint x="330" y="2510"/>
                            <mxPoint x="63" y="2510"/>
                        </Array>
                    </mxGeometry>
                </mxCell>
                <mxCell id="98" value="&lt;span&gt;&lt;span style=&quot;font-size: 18px&quot;&gt;resultados = temperatura&lt;/span&gt;&lt;br&gt;&lt;/span&gt;" style="rounded=1;whiteSpace=wrap;html=1;absoluteArcSize=1;arcSize=14;strokeWidth=3;fillColor=#00FF00;fontColor=#000000;strokeColor=#000000;" parent="1" vertex="1">
                    <mxGeometry x="240" y="1790" width="180" height="100" as="geometry"/>
                </mxCell>
                <mxCell id="124" style="edgeStyle=none;html=1;exitX=0.5;exitY=1;exitDx=0;exitDy=0;entryX=0.5;entryY=0;entryDx=0;entryDy=0;entryPerimeter=0;strokeColor=#000000;strokeWidth=2;" parent="1" source="99" target="diSnjzynUhi2UMkX59iC-7" edge="1">
                    <mxGeometry relative="1" as="geometry">
                        <Array as="points">
                            <mxPoint x="140" y="2510"/>
                            <mxPoint x="63" y="2510"/>
                        </Array>
                    </mxGeometry>
                </mxCell>
                <mxCell id="99" value="&lt;span&gt;&lt;span style=&quot;font-size: 18px&quot;&gt;resultados = clima&lt;/span&gt;&lt;br&gt;&lt;/span&gt;" style="rounded=1;whiteSpace=wrap;html=1;absoluteArcSize=1;arcSize=14;strokeWidth=3;fillColor=#00FF00;fontColor=#000000;strokeColor=#000000;" parent="1" vertex="1">
                    <mxGeometry x="50" y="1730" width="180" height="100" as="geometry"/>
                </mxCell>
                <mxCell id="123" style="edgeStyle=none;html=1;exitX=0.5;exitY=1;exitDx=0;exitDy=0;entryX=0.5;entryY=0;entryDx=0;entryDy=0;entryPerimeter=0;strokeColor=#000000;strokeWidth=2;" parent="1" source="100" target="diSnjzynUhi2UMkX59iC-7" edge="1">
                    <mxGeometry relative="1" as="geometry">
                        <Array as="points">
                            <mxPoint x="-70" y="2510"/>
                            <mxPoint x="63" y="2510"/>
                        </Array>
                    </mxGeometry>
                </mxCell>
                <mxCell id="100" value="&lt;span&gt;&lt;span style=&quot;font-size: 18px&quot;&gt;resultados = lluvia&lt;/span&gt;&lt;br&gt;&lt;/span&gt;" style="rounded=1;whiteSpace=wrap;html=1;absoluteArcSize=1;arcSize=14;strokeWidth=3;fillColor=#00FF00;fontColor=#000000;strokeColor=#000000;" parent="1" vertex="1">
                    <mxGeometry x="-160" y="1670" width="180" height="100" as="geometry"/>
                </mxCell>
                <mxCell id="122" style="edgeStyle=none;html=1;exitX=0.5;exitY=1;exitDx=0;exitDy=0;entryX=0.5;entryY=0;entryDx=0;entryDy=0;entryPerimeter=0;strokeColor=#000000;strokeWidth=2;" parent="1" source="101" target="diSnjzynUhi2UMkX59iC-7" edge="1">
                    <mxGeometry relative="1" as="geometry">
                        <Array as="points">
                            <mxPoint x="-210" y="2510"/>
                            <mxPoint x="63" y="2510"/>
                        </Array>
                    </mxGeometry>
                </mxCell>
                <mxCell id="101" value="&lt;span&gt;&lt;span style=&quot;font-size: 18px&quot;&gt;resultados = nubes&lt;/span&gt;&lt;br&gt;&lt;/span&gt;" style="rounded=1;whiteSpace=wrap;html=1;absoluteArcSize=1;arcSize=14;strokeWidth=3;fillColor=#00FF00;fontColor=#000000;strokeColor=#000000;" parent="1" vertex="1">
                    <mxGeometry x="-300" y="1800" width="180" height="100" as="geometry"/>
                </mxCell>
                <mxCell id="121" style="edgeStyle=none;html=1;exitX=0.5;exitY=1;exitDx=0;exitDy=0;entryX=0.5;entryY=0;entryDx=0;entryDy=0;entryPerimeter=0;strokeColor=#000000;strokeWidth=2;" parent="1" source="102" target="diSnjzynUhi2UMkX59iC-7" edge="1">
                    <mxGeometry relative="1" as="geometry">
                        <Array as="points">
                            <mxPoint x="-330" y="2510"/>
                            <mxPoint x="63" y="2510"/>
                        </Array>
                    </mxGeometry>
                </mxCell>
                <mxCell id="102" value="&lt;span&gt;&lt;span style=&quot;font-size: 18px&quot;&gt;resultados = iuv&lt;/span&gt;&lt;br&gt;&lt;/span&gt;" style="rounded=1;whiteSpace=wrap;html=1;absoluteArcSize=1;arcSize=14;strokeWidth=3;fillColor=#00FF00;fontColor=#000000;strokeColor=#000000;" parent="1" vertex="1">
                    <mxGeometry x="-420" y="1940" width="180" height="100" as="geometry"/>
                </mxCell>
                <mxCell id="120" style="edgeStyle=none;html=1;exitX=0.5;exitY=1;exitDx=0;exitDy=0;entryX=0.5;entryY=0;entryDx=0;entryDy=0;entryPerimeter=0;strokeColor=#000000;strokeWidth=2;" parent="1" source="103" target="diSnjzynUhi2UMkX59iC-7" edge="1">
                    <mxGeometry relative="1" as="geometry">
                        <Array as="points">
                            <mxPoint x="-480" y="2510"/>
                            <mxPoint x="63" y="2510"/>
                        </Array>
                    </mxGeometry>
                </mxCell>
                <mxCell id="103" value="&lt;span&gt;&lt;span style=&quot;font-size: 18px&quot;&gt;resultados = calidad_aire&lt;/span&gt;&lt;br&gt;&lt;/span&gt;" style="rounded=1;whiteSpace=wrap;html=1;absoluteArcSize=1;arcSize=14;strokeWidth=3;fillColor=#00FF00;fontColor=#000000;strokeColor=#000000;" parent="1" vertex="1">
                    <mxGeometry x="-570" y="2075" width="180" height="100" as="geometry"/>
                </mxCell>
                <mxCell id="119" style="edgeStyle=none;html=1;exitX=0.5;exitY=1;exitDx=0;exitDy=0;entryX=0.5;entryY=0;entryDx=0;entryDy=0;entryPerimeter=0;strokeColor=#000000;strokeWidth=2;" parent="1" source="104" target="diSnjzynUhi2UMkX59iC-7" edge="1">
                    <mxGeometry relative="1" as="geometry">
                        <Array as="points">
                            <mxPoint x="-650" y="2510"/>
                            <mxPoint x="63" y="2510"/>
                        </Array>
                    </mxGeometry>
                </mxCell>
                <mxCell id="104" value="&lt;span&gt;&lt;span style=&quot;font-size: 18px&quot;&gt;resultados = todos_datos&lt;/span&gt;&lt;br&gt;&lt;/span&gt;" style="rounded=1;whiteSpace=wrap;html=1;absoluteArcSize=1;arcSize=14;strokeWidth=3;fillColor=#00FF00;fontColor=#000000;strokeColor=#000000;" parent="1" vertex="1">
                    <mxGeometry x="-740" y="2190" width="180" height="100" as="geometry"/>
                </mxCell>
                <mxCell id="113" style="edgeStyle=none;html=1;exitX=1;exitY=0.5;exitDx=0;exitDy=0;exitPerimeter=0;strokeWidth=2;strokeColor=#000000;entryX=0.5;entryY=0;entryDx=0;entryDy=0;" parent="1" source="2" target="70" edge="1">
                    <mxGeometry relative="1" as="geometry">
                        <mxPoint x="1100" y="370" as="targetPoint"/>
                        <mxPoint x="1000" y="340" as="sourcePoint"/>
                        <Array as="points">
                            <mxPoint x="1080" y="335"/>
                        </Array>
                    </mxGeometry>
                </mxCell>
                <mxCell id="118" style="edgeStyle=none;html=1;entryX=0.5;entryY=0;entryDx=0;entryDy=0;entryPerimeter=0;strokeColor=#000000;strokeWidth=2;startArrow=none;exitX=0.5;exitY=1;exitDx=0;exitDy=0;" parent="1" source="138" target="diSnjzynUhi2UMkX59iC-7" edge="1">
                    <mxGeometry relative="1" as="geometry">
                        <Array as="points">
                            <mxPoint x="-1240" y="2510"/>
                            <mxPoint x="63" y="2510"/>
                        </Array>
                        <mxPoint x="-1020" y="2210" as="sourcePoint"/>
                    </mxGeometry>
                </mxCell>
                <mxCell id="129" value="&lt;b&gt;&lt;font style=&quot;font-size: 16px&quot;&gt;Falso&lt;/font&gt;&lt;/b&gt;" style="text;html=1;align=center;verticalAlign=middle;resizable=0;points=[];autosize=1;strokeColor=none;fillColor=none;fontColor=#000000;" parent="1" vertex="1">
                    <mxGeometry x="390" y="440" width="60" height="20" as="geometry"/>
                </mxCell>
                <mxCell id="130" value="&lt;b&gt;&lt;font style=&quot;font-size: 16px&quot;&gt;Verdadero&lt;/font&gt;&lt;/b&gt;" style="text;html=1;align=center;verticalAlign=middle;resizable=0;points=[];autosize=1;strokeColor=none;fillColor=none;fontSize=16;fontColor=#000000;" parent="1" vertex="1">
                    <mxGeometry x="600" y="440" width="90" height="20" as="geometry"/>
                </mxCell>
                <mxCell id="131" value="&lt;b&gt;&lt;font style=&quot;font-size: 16px&quot;&gt;Falso&lt;/font&gt;&lt;/b&gt;" style="text;html=1;align=center;verticalAlign=middle;resizable=0;points=[];autosize=1;strokeColor=none;fillColor=none;fontColor=#000000;" parent="1" vertex="1">
                    <mxGeometry x="210" y="590" width="60" height="20" as="geometry"/>
                </mxCell>
                <mxCell id="132" value="&lt;b&gt;&lt;font style=&quot;font-size: 16px&quot;&gt;Verdadero&lt;/font&gt;&lt;/b&gt;" style="text;html=1;align=center;verticalAlign=middle;resizable=0;points=[];autosize=1;strokeColor=none;fillColor=none;fontSize=16;fontColor=#000000;" parent="1" vertex="1">
                    <mxGeometry x="420" y="590" width="90" height="20" as="geometry"/>
                </mxCell>
                <mxCell id="133" value="&lt;b&gt;&lt;font style=&quot;font-size: 16px&quot;&gt;Falso&lt;/font&gt;&lt;/b&gt;" style="text;html=1;align=center;verticalAlign=middle;resizable=0;points=[];autosize=1;strokeColor=none;fillColor=none;fontColor=#000000;" parent="1" vertex="1">
                    <mxGeometry x="50" y="740" width="60" height="20" as="geometry"/>
                </mxCell>
                <mxCell id="134" value="&lt;b&gt;&lt;font style=&quot;font-size: 16px&quot;&gt;Verdadero&lt;/font&gt;&lt;/b&gt;" style="text;html=1;align=center;verticalAlign=middle;resizable=0;points=[];autosize=1;strokeColor=none;fillColor=none;fontSize=16;fontColor=#000000;" parent="1" vertex="1">
                    <mxGeometry x="260" y="740" width="90" height="20" as="geometry"/>
                </mxCell>
                <mxCell id="141" style="edgeStyle=none;html=1;exitX=1;exitY=0.5;exitDx=0;exitDy=0;exitPerimeter=0;entryX=0.5;entryY=0;entryDx=0;entryDy=0;entryPerimeter=0;strokeColor=#000000;strokeWidth=2;" edge="1" parent="1" source="136" target="diSnjzynUhi2UMkX59iC-6">
                    <mxGeometry relative="1" as="geometry">
                        <Array as="points">
                            <mxPoint x="-840" y="2125"/>
                        </Array>
                    </mxGeometry>
                </mxCell>
                <mxCell id="136" value="&lt;font face=&quot;helvetica&quot;&gt;&lt;span style=&quot;font-size: 18px&quot;&gt;opcion == 12&lt;/span&gt;&lt;/font&gt;" style="strokeWidth=3;html=1;shape=mxgraph.flowchart.decision;whiteSpace=wrap;fillColor=#FFFF00;fontColor=#000000;strokeColor=#000000;" vertex="1" parent="1">
                    <mxGeometry x="-1190" y="2060" width="250" height="130" as="geometry"/>
                </mxCell>
                <mxCell id="138" value="&lt;span&gt;&lt;span style=&quot;font-size: 18px&quot;&gt;resultados = &quot;Opción desconocida&quot;&lt;/span&gt;&lt;br&gt;&lt;/span&gt;" style="rounded=1;whiteSpace=wrap;html=1;absoluteArcSize=1;arcSize=14;strokeWidth=3;fillColor=#00FF00;fontColor=#000000;strokeColor=#000000;" vertex="1" parent="1">
                    <mxGeometry x="-1330" y="2270" width="180" height="100" as="geometry"/>
                </mxCell>
                <mxCell id="140" value="" style="edgeStyle=none;html=1;entryX=0.5;entryY=0;entryDx=0;entryDy=0;entryPerimeter=0;strokeColor=#000000;strokeWidth=2;startArrow=none;exitX=0;exitY=0.5;exitDx=0;exitDy=0;exitPerimeter=0;endArrow=none;" edge="1" parent="1" source="136" target="138">
                    <mxGeometry relative="1" as="geometry">
                        <Array as="points">
                            <mxPoint x="-1240" y="2125"/>
                        </Array>
                        <mxPoint x="-1190" y="2125" as="sourcePoint"/>
                        <mxPoint x="62.5" y="2570" as="targetPoint"/>
                    </mxGeometry>
                </mxCell>
                <mxCell id="143" value="&lt;b&gt;&lt;font style=&quot;font-size: 16px&quot;&gt;Falso&lt;/font&gt;&lt;/b&gt;" style="text;html=1;align=center;verticalAlign=middle;resizable=0;points=[];autosize=1;strokeColor=none;fillColor=none;fontColor=#000000;" vertex="1" parent="1">
                    <mxGeometry x="-100" y="890" width="60" height="20" as="geometry"/>
                </mxCell>
                <mxCell id="144" value="&lt;b&gt;&lt;font style=&quot;font-size: 16px&quot;&gt;Verdadero&lt;/font&gt;&lt;/b&gt;" style="text;html=1;align=center;verticalAlign=middle;resizable=0;points=[];autosize=1;strokeColor=none;fillColor=none;fontSize=16;fontColor=#000000;" vertex="1" parent="1">
                    <mxGeometry x="110" y="890" width="90" height="20" as="geometry"/>
                </mxCell>
                <mxCell id="145" value="&lt;b&gt;&lt;font style=&quot;font-size: 16px&quot;&gt;Falso&lt;/font&gt;&lt;/b&gt;" style="text;html=1;align=center;verticalAlign=middle;resizable=0;points=[];autosize=1;strokeColor=none;fillColor=none;fontColor=#000000;" vertex="1" parent="1">
                    <mxGeometry x="-250" y="1060" width="60" height="20" as="geometry"/>
                </mxCell>
                <mxCell id="146" value="&lt;b&gt;&lt;font style=&quot;font-size: 16px&quot;&gt;Verdadero&lt;/font&gt;&lt;/b&gt;" style="text;html=1;align=center;verticalAlign=middle;resizable=0;points=[];autosize=1;strokeColor=none;fillColor=none;fontSize=16;fontColor=#000000;" vertex="1" parent="1">
                    <mxGeometry x="-40" y="1060" width="90" height="20" as="geometry"/>
                </mxCell>
                <mxCell id="147" value="&lt;b&gt;&lt;font style=&quot;font-size: 16px&quot;&gt;Falso&lt;/font&gt;&lt;/b&gt;" style="text;html=1;align=center;verticalAlign=middle;resizable=0;points=[];autosize=1;strokeColor=none;fillColor=none;fontColor=#000000;" vertex="1" parent="1">
                    <mxGeometry x="-390" y="1220" width="60" height="20" as="geometry"/>
                </mxCell>
                <mxCell id="148" value="&lt;b&gt;&lt;font style=&quot;font-size: 16px&quot;&gt;Verdadero&lt;/font&gt;&lt;/b&gt;" style="text;html=1;align=center;verticalAlign=middle;resizable=0;points=[];autosize=1;strokeColor=none;fillColor=none;fontSize=16;fontColor=#000000;" vertex="1" parent="1">
                    <mxGeometry x="-180" y="1220" width="90" height="20" as="geometry"/>
                </mxCell>
                <mxCell id="149" value="&lt;b&gt;&lt;font style=&quot;font-size: 16px&quot;&gt;Falso&lt;/font&gt;&lt;/b&gt;" style="text;html=1;align=center;verticalAlign=middle;resizable=0;points=[];autosize=1;strokeColor=none;fillColor=none;fontColor=#000000;" vertex="1" parent="1">
                    <mxGeometry x="-570" y="1380" width="60" height="20" as="geometry"/>
                </mxCell>
                <mxCell id="150" value="&lt;b&gt;&lt;font style=&quot;font-size: 16px&quot;&gt;Verdadero&lt;/font&gt;&lt;/b&gt;" style="text;html=1;align=center;verticalAlign=middle;resizable=0;points=[];autosize=1;strokeColor=none;fillColor=none;fontSize=16;fontColor=#000000;" vertex="1" parent="1">
                    <mxGeometry x="-360" y="1380" width="90" height="20" as="geometry"/>
                </mxCell>
                <mxCell id="151" value="&lt;b&gt;&lt;font style=&quot;font-size: 16px&quot;&gt;Falso&lt;/font&gt;&lt;/b&gt;" style="text;html=1;align=center;verticalAlign=middle;resizable=0;points=[];autosize=1;strokeColor=none;fillColor=none;fontColor=#000000;" vertex="1" parent="1">
                    <mxGeometry x="-720" y="1540" width="60" height="20" as="geometry"/>
                </mxCell>
                <mxCell id="152" value="&lt;b&gt;&lt;font style=&quot;font-size: 16px&quot;&gt;Verdadero&lt;/font&gt;&lt;/b&gt;" style="text;html=1;align=center;verticalAlign=middle;resizable=0;points=[];autosize=1;strokeColor=none;fillColor=none;fontSize=16;fontColor=#000000;" vertex="1" parent="1">
                    <mxGeometry x="-510" y="1540" width="90" height="20" as="geometry"/>
                </mxCell>
                <mxCell id="153" value="&lt;b&gt;&lt;font style=&quot;font-size: 16px&quot;&gt;Falso&lt;/font&gt;&lt;/b&gt;" style="text;html=1;align=center;verticalAlign=middle;resizable=0;points=[];autosize=1;strokeColor=none;fillColor=none;fontColor=#000000;" vertex="1" parent="1">
                    <mxGeometry x="-880" y="1690" width="60" height="20" as="geometry"/>
                </mxCell>
                <mxCell id="154" value="&lt;b&gt;&lt;font style=&quot;font-size: 16px&quot;&gt;Verdadero&lt;/font&gt;&lt;/b&gt;" style="text;html=1;align=center;verticalAlign=middle;resizable=0;points=[];autosize=1;strokeColor=none;fillColor=none;fontSize=16;fontColor=#000000;" vertex="1" parent="1">
                    <mxGeometry x="-670" y="1690" width="90" height="20" as="geometry"/>
                </mxCell>
                <mxCell id="158" value="&lt;b&gt;&lt;font style=&quot;font-size: 16px&quot;&gt;Falso&lt;/font&gt;&lt;/b&gt;" style="text;html=1;align=center;verticalAlign=middle;resizable=0;points=[];autosize=1;strokeColor=none;fillColor=none;fontColor=#000000;" vertex="1" parent="1">
                    <mxGeometry x="-1040" y="1880" width="60" height="20" as="geometry"/>
                </mxCell>
                <mxCell id="159" value="&lt;b&gt;&lt;font style=&quot;font-size: 16px&quot;&gt;Verdadero&lt;/font&gt;&lt;/b&gt;" style="text;html=1;align=center;verticalAlign=middle;resizable=0;points=[];autosize=1;strokeColor=none;fillColor=none;fontSize=16;fontColor=#000000;" vertex="1" parent="1">
                    <mxGeometry x="-830" y="1880" width="90" height="20" as="geometry"/>
                </mxCell>
                <mxCell id="160" value="&lt;b&gt;&lt;font style=&quot;font-size: 16px&quot;&gt;Falso&lt;/font&gt;&lt;/b&gt;" style="text;html=1;align=center;verticalAlign=middle;resizable=0;points=[];autosize=1;strokeColor=none;fillColor=none;fontColor=#000000;" vertex="1" parent="1">
                    <mxGeometry x="-1200" y="2070" width="60" height="20" as="geometry"/>
                </mxCell>
                <mxCell id="161" value="&lt;b&gt;&lt;font style=&quot;font-size: 16px&quot;&gt;Verdadero&lt;/font&gt;&lt;/b&gt;" style="text;html=1;align=center;verticalAlign=middle;resizable=0;points=[];autosize=1;strokeColor=none;fillColor=none;fontSize=16;fontColor=#000000;" vertex="1" parent="1">
                    <mxGeometry x="-990" y="2070" width="90" height="20" as="geometry"/>
                </mxCell>
            </root>
        </mxGraphModel>
    </diagram>
</mxfile>